<mxfile host="www.draw.io" modified="2019-10-22T08:45:43.111Z" agent="Mozilla/5.0 (Macintosh; Intel Mac OS X 10_14_6) AppleWebKit/605.1.15 (KHTML, like Gecko) Version/12.1.2 Safari/605.1.15" etag="agy91hILHpm8Uzy_v950" version="12.1.3" type="github" pages="1">
  <diagram id="MBfTqtJyaahoeHjx8nua" name="第 1 页">
    <mxGraphModel dx="946" dy="662" grid="1" gridSize="10" guides="1" tooltips="1" connect="1" arrows="1" fold="1" page="1" pageScale="1" pageWidth="1169" pageHeight="827" math="0" shadow="0">
      <root>
        <mxCell id="0"/>
        <mxCell id="1" parent="0"/>
        <mxCell id="BXB01TKqpgNcGiXyp-wM-7" style="edgeStyle=orthogonalEdgeStyle;rounded=0;orthogonalLoop=1;jettySize=auto;html=1;curved=1;" edge="1" parent="1" source="BXB01TKqpgNcGiXyp-wM-1" target="BXB01TKqpgNcGiXyp-wM-4">
          <mxGeometry relative="1" as="geometry"/>
        </mxCell>
        <mxCell id="BXB01TKqpgNcGiXyp-wM-1" value="" style="shadow=0;dashed=0;html=1;strokeColor=none;fillColor=#505050;labelPosition=center;verticalLabelPosition=bottom;verticalAlign=top;outlineConnect=0;align=center;shape=mxgraph.office.databases.database_availability_group;" vertex="1" parent="1">
          <mxGeometry x="400" y="260" width="59" height="59" as="geometry"/>
        </mxCell>
        <mxCell id="BXB01TKqpgNcGiXyp-wM-5" style="edgeStyle=orthogonalEdgeStyle;rounded=0;orthogonalLoop=1;jettySize=auto;html=1;curved=1;" edge="1" parent="1" source="BXB01TKqpgNcGiXyp-wM-2" target="BXB01TKqpgNcGiXyp-wM-1">
          <mxGeometry relative="1" as="geometry"/>
        </mxCell>
        <mxCell id="BXB01TKqpgNcGiXyp-wM-2" value="" style="shadow=0;dashed=0;html=1;strokeColor=none;fillColor=#505050;labelPosition=center;verticalLabelPosition=bottom;verticalAlign=top;outlineConnect=0;align=center;shape=mxgraph.office.databases.database_cube;" vertex="1" parent="1">
          <mxGeometry x="180" y="120" width="67" height="72" as="geometry"/>
        </mxCell>
        <mxCell id="BXB01TKqpgNcGiXyp-wM-6" style="edgeStyle=orthogonalEdgeStyle;rounded=0;orthogonalLoop=1;jettySize=auto;html=1;curved=1;" edge="1" parent="1" source="BXB01TKqpgNcGiXyp-wM-3" target="BXB01TKqpgNcGiXyp-wM-1">
          <mxGeometry relative="1" as="geometry"/>
        </mxCell>
        <mxCell id="BXB01TKqpgNcGiXyp-wM-3" value="" style="shadow=0;dashed=0;html=1;strokeColor=none;labelPosition=center;verticalLabelPosition=bottom;verticalAlign=top;outlineConnect=0;align=center;shape=mxgraph.office.databases.database_cube;fillColor=#2072B8;" vertex="1" parent="1">
          <mxGeometry x="180" y="319" width="67" height="72" as="geometry"/>
        </mxCell>
        <mxCell id="BXB01TKqpgNcGiXyp-wM-4" value="" style="shadow=0;dashed=0;html=1;strokeColor=none;fillColor=#505050;labelPosition=center;verticalLabelPosition=bottom;verticalAlign=top;outlineConnect=0;align=center;shape=mxgraph.office.databases.database_server;" vertex="1" parent="1">
          <mxGeometry x="670" y="260" width="43" height="57" as="geometry"/>
        </mxCell>
        <mxCell id="BXB01TKqpgNcGiXyp-wM-8" value="Redshift" style="text;html=1;strokeColor=none;fillColor=none;align=center;verticalAlign=middle;whiteSpace=wrap;rounded=0;" vertex="1" parent="1">
          <mxGeometry x="193.5" y="200" width="40" height="20" as="geometry"/>
        </mxCell>
        <mxCell id="BXB01TKqpgNcGiXyp-wM-9" value="Hive" style="text;html=1;strokeColor=none;fillColor=none;align=center;verticalAlign=middle;whiteSpace=wrap;rounded=0;" vertex="1" parent="1">
          <mxGeometry x="193.5" y="399" width="40" height="20" as="geometry"/>
        </mxCell>
        <mxCell id="BXB01TKqpgNcGiXyp-wM-10" value="unload" style="text;html=1;strokeColor=none;fillColor=none;align=center;verticalAlign=middle;whiteSpace=wrap;rounded=0;" vertex="1" parent="1">
          <mxGeometry x="360" y="150" width="40" height="20" as="geometry"/>
        </mxCell>
        <mxCell id="BXB01TKqpgNcGiXyp-wM-11" value="S3" style="text;html=1;strokeColor=none;fillColor=none;align=center;verticalAlign=middle;whiteSpace=wrap;rounded=0;" vertex="1" parent="1">
          <mxGeometry x="410" y="330" width="40" height="20" as="geometry"/>
        </mxCell>
        <mxCell id="BXB01TKqpgNcGiXyp-wM-12" value="Mysql" style="text;html=1;strokeColor=none;fillColor=none;align=center;verticalAlign=middle;whiteSpace=wrap;rounded=0;" vertex="1" parent="1">
          <mxGeometry x="670" y="330" width="40" height="20" as="geometry"/>
        </mxCell>
        <mxCell id="BXB01TKqpgNcGiXyp-wM-13" value="dataX" style="text;html=1;strokeColor=none;fillColor=none;align=center;verticalAlign=middle;whiteSpace=wrap;rounded=0;" vertex="1" parent="1">
          <mxGeometry x="544" y="260" width="40" height="20" as="geometry"/>
        </mxCell>
      </root>
    </mxGraphModel>
  </diagram>
</mxfile>
